<svg viewBox="0 0 40 40" fill="none" xmlns="http://www.w3.org/2000/svg">
  <rect width="40" height="40" rx="10" fill="#2AB05B" />
  <path d="M10 16V12C10 10.895 10.895 10 12 10H16" stroke="white" stroke-width="2.5" stroke-linecap="round" />
  <path d="M24 10H28C29.105 10 30 10.895 30 12V16" stroke="white" stroke-width="2.5" stroke-linecap="round" />
  <path d="M30 24V28C30 29.105 29.105 30 28 30H24" stroke="white" stroke-width="2.5" stroke-linecap="round" />
  <path d="M16 30H12C10.895 30 10 29.105 10 28V24" stroke="white" stroke-width="2.5" stroke-linecap="round" />
  <path d="M20 14C20 14 25 16 25 21C25 24.5 22 27 20 27" stroke="white" stroke-width="2" stroke-linecap="round" fill="none" />
  <path d="M20 14C20 14 15 16 15 21C15 24.5 18 27 20 27" stroke="white" stroke-width="2" stroke-linecap="round" fill="none" opacity="0.6" />
  <line x1="20" y1="18" x2="20" y2="27" stroke="white" stroke-width="1.5" stroke-linecap="round" opacity="0.8" />
</svg>
